<svg width="433.501" height="92.874" viewBox="0 0 433.501 92.874" xmlns="http://www.w3.org/2000/svg"><g id="svgGroup" stroke-linecap="round" fill-rule="evenodd" font-size="9pt" stroke="#000000" stroke-width="0.25mm" fill="#000" style="stroke:#000000;stroke-width:0.25mm;fill:#000"><path d="M 260.842 51.614 L 268.655 48.001 L 268.655 52.054 A 20.779 20.779 0 0 1 262.421 67.198 A 25.522 25.522 0 0 1 262.209 67.41 A 21.329 21.329 0 0 1 246.776 73.782 A 26.087 26.087 0 0 1 246.633 73.782 A 21.874 21.874 0 0 1 236.831 71.603 A 21.968 21.968 0 0 1 231.057 67.435 A 21.234 21.234 0 0 1 225.527 58.46 A 21.951 21.951 0 0 1 224.612 52.054 L 224.612 21.732 A 20.779 20.779 0 0 1 230.845 6.587 A 25.522 25.522 0 0 1 231.057 6.375 A 21.329 21.329 0 0 1 246.491 0.003 A 26.087 26.087 0 0 1 246.633 0.003 A 21.945 21.945 0 0 1 255.865 1.916 A 21.511 21.511 0 0 1 262.209 6.4 A 21.805 21.805 0 0 1 267.331 14.179 A 21.314 21.314 0 0 1 268.655 21.732 L 268.655 22.171 L 260.842 25.736 L 260.842 21.585 A 13.483 13.483 0 0 0 256.781 11.762 A 16.743 16.743 0 0 0 256.643 11.624 A 14.055 14.055 0 0 0 250.967 8.12 A 14.284 14.284 0 0 0 246.633 7.474 A 13.726 13.726 0 0 0 236.705 11.472 A 16.333 16.333 0 0 0 236.574 11.6 A 13.544 13.544 0 0 0 232.425 21.402 A 16.432 16.432 0 0 0 232.424 21.585 L 232.424 52.2 Q 232.424 58.011 236.574 62.161 A 13.679 13.679 0 0 0 246.449 66.311 A 16.706 16.706 0 0 0 246.633 66.312 A 13.735 13.735 0 0 0 256.577 62.226 A 17.012 17.012 0 0 0 256.643 62.161 A 13.38 13.38 0 0 0 260.84 52.474 A 16.181 16.181 0 0 0 260.842 52.2 L 260.842 51.614 Z M 194.192 64.407 L 197.121 71.78 A 17.612 17.612 0 0 1 189.679 73.758 A 20.892 20.892 0 0 1 188.674 73.782 A 18.196 18.196 0 0 1 176.22 68.903 A 23.651 23.651 0 0 1 175.686 68.411 A 13.792 13.792 0 0 1 172.954 64.496 A 12.105 12.105 0 0 1 171.877 59.427 L 171.877 59.036 A 13.686 13.686 0 0 1 173.185 52.944 Q 174.687 49.874 177.914 47.789 A 19.926 19.926 0 0 1 181.203 46.097 L 201.076 37.943 A 11.52 11.52 0 0 0 200.313 33.691 A 10.562 10.562 0 0 0 198 30.154 A 10.312 10.312 0 0 0 190.672 27.012 A 13.625 13.625 0 0 0 190.237 27.005 A 9.903 9.903 0 0 0 183.355 29.754 A 13.01 13.01 0 0 0 183.01 30.081 A 10.343 10.343 0 0 0 179.904 37.109 A 13.561 13.561 0 0 0 179.885 37.601 L 179.885 38.284 L 172.073 41.751 L 172.073 37.454 Q 172.073 30.779 177.66 24.662 A 30.94 30.94 0 0 1 177.932 24.368 Q 182.912 19.095 190.53 19.095 Q 198.147 19.095 203.518 24.466 A 17.671 17.671 0 0 1 208.888 37.217 A 21.459 21.459 0 0 1 208.889 37.454 L 208.889 70.364 L 201.076 73.782 L 201.076 46.487 L 185.012 53.03 Q 182.195 54.358 180.941 56.18 A 5.6 5.6 0 0 0 179.934 59.427 A 4.594 4.594 0 0 0 180.282 61.141 Q 180.598 61.933 181.203 62.747 A 7.407 7.407 0 0 0 185.212 65.43 Q 186.459 65.789 187.965 65.857 A 15.888 15.888 0 0 0 188.674 65.872 Q 191.799 65.872 194.192 64.407 Z M 306.496 64.407 L 309.426 71.78 A 17.612 17.612 0 0 1 301.984 73.758 A 20.892 20.892 0 0 1 300.979 73.782 A 18.196 18.196 0 0 1 288.525 68.903 A 23.651 23.651 0 0 1 287.99 68.411 A 13.792 13.792 0 0 1 285.259 64.496 A 12.105 12.105 0 0 1 284.182 59.427 L 284.182 59.036 A 13.686 13.686 0 0 1 285.49 52.944 Q 286.992 49.874 290.219 47.789 A 19.926 19.926 0 0 1 293.508 46.097 L 313.381 37.943 A 11.52 11.52 0 0 0 312.618 33.691 A 10.562 10.562 0 0 0 310.305 30.154 A 10.312 10.312 0 0 0 302.977 27.012 A 13.625 13.625 0 0 0 302.541 27.005 A 9.903 9.903 0 0 0 295.659 29.754 A 13.01 13.01 0 0 0 295.315 30.081 A 10.343 10.343 0 0 0 292.209 37.109 A 13.561 13.561 0 0 0 292.19 37.601 L 292.19 38.284 L 284.377 41.751 L 284.377 37.454 Q 284.377 30.779 289.965 24.662 A 30.94 30.94 0 0 1 290.237 24.368 Q 295.217 19.095 302.834 19.095 Q 310.451 19.095 315.823 24.466 A 17.671 17.671 0 0 1 321.192 37.217 A 21.459 21.459 0 0 1 321.194 37.454 L 321.194 70.364 L 313.381 73.782 L 313.381 46.487 L 297.317 53.03 Q 294.5 54.358 293.246 56.18 A 5.6 5.6 0 0 0 292.239 59.427 A 4.594 4.594 0 0 0 292.586 61.141 Q 292.903 61.933 293.508 62.747 A 7.407 7.407 0 0 0 297.517 65.43 Q 298.764 65.789 300.27 65.857 A 15.888 15.888 0 0 0 300.979 65.872 Q 304.104 65.872 306.496 64.407 Z M 7.815 70.364 L 0.002 73.782 L 0.002 21.732 A 20.779 20.779 0 0 1 6.235 6.587 A 25.522 25.522 0 0 1 6.448 6.375 A 21.329 21.329 0 0 1 21.881 0.003 A 26.087 26.087 0 0 1 22.024 0.003 A 21.333 21.333 0 0 1 37.499 6.276 A 25.509 25.509 0 0 1 37.6 6.375 Q 44.045 12.747 44.045 21.732 L 44.045 70.364 L 36.233 73.782 L 36.233 40.823 L 7.815 40.823 L 7.815 70.364 Z M 433.498 51.517 L 433.498 55.423 Q 433.498 63.04 428.127 68.411 A 17.671 17.671 0 0 1 415.376 73.781 A 21.459 21.459 0 0 1 415.139 73.782 Q 407.522 73.782 402.102 68.411 A 17.593 17.593 0 0 1 396.683 55.66 A 21.264 21.264 0 0 1 396.682 55.423 L 396.682 27.884 L 390.627 27.884 L 394.045 20.071 L 396.682 20.071 L 396.682 3.421 L 404.494 0.003 L 404.494 20.071 L 429.299 20.071 L 425.881 27.884 L 404.494 27.884 L 404.494 55.277 A 11.642 11.642 0 0 0 405.162 59.035 A 9.888 9.888 0 0 0 407.619 62.796 A 10.326 10.326 0 0 0 415.041 65.872 Q 419.387 65.872 422.561 62.747 Q 425.686 59.72 425.686 54.935 L 433.498 51.517 Z M 144.924 55.277 L 144.924 22.513 L 152.737 19.095 L 152.737 55.423 Q 152.737 63.04 147.365 68.411 A 17.671 17.671 0 0 1 134.615 73.781 A 21.459 21.459 0 0 1 134.377 73.782 Q 126.76 73.782 121.34 68.411 A 17.593 17.593 0 0 1 115.922 55.66 A 21.264 21.264 0 0 1 115.92 55.423 L 115.92 22.513 L 123.733 19.095 L 123.733 55.277 A 11.471 11.471 0 0 0 124.468 59.19 A 10.145 10.145 0 0 0 126.858 62.796 Q 129.983 65.872 134.67 65.872 Q 138.772 65.872 141.848 62.796 A 10.242 10.242 0 0 0 144.473 58.534 A 10.527 10.527 0 0 0 144.924 55.423 L 144.924 55.277 Z M 107.815 84.525 L 88.772 92.874 L 88.772 70.511 A 17.656 17.656 0 0 1 78.503 73.781 A 21.52 21.52 0 0 1 78.225 73.782 Q 70.608 73.782 65.188 68.411 A 17.593 17.593 0 0 1 59.769 55.66 A 21.264 21.264 0 0 1 59.768 55.423 L 59.768 37.454 A 17.591 17.591 0 0 1 65.02 24.634 A 21.374 21.374 0 0 1 65.188 24.466 A 17.845 17.845 0 0 1 78.106 19.095 A 21.547 21.547 0 0 1 78.225 19.095 Q 85.842 19.095 91.213 24.466 A 17.671 17.671 0 0 1 96.583 37.217 A 21.459 21.459 0 0 1 96.584 37.454 L 96.584 81.107 L 104.885 77.493 L 107.815 84.525 Z M 348.342 70.364 L 340.53 73.782 L 340.53 37.454 Q 340.53 29.837 345.901 24.466 A 17.671 17.671 0 0 1 358.651 19.096 A 21.459 21.459 0 0 1 358.889 19.095 A 18.459 18.459 0 0 1 366.334 20.566 A 17.71 17.71 0 0 1 371.926 24.466 A 19.224 19.224 0 0 1 376.054 30.649 A 17.911 17.911 0 0 1 377.346 37.454 L 377.346 37.65 L 369.533 41.068 L 369.533 37.601 A 11.471 11.471 0 0 0 368.798 33.687 A 10.145 10.145 0 0 0 366.408 30.081 A 10.647 10.647 0 0 0 362.713 27.659 A 10.263 10.263 0 0 0 359.035 27.005 A 10.56 10.56 0 0 0 353.94 28.237 A 10.896 10.896 0 0 0 351.467 30.081 A 10.328 10.328 0 0 0 348.946 33.913 A 10.242 10.242 0 0 0 348.342 37.454 L 348.342 37.601 L 348.342 70.364 Z M 67.58 37.601 L 67.58 55.277 A 10.092 10.092 0 0 0 68.615 59.867 A 10.247 10.247 0 0 0 70.852 62.796 A 11.726 11.726 0 0 0 74.389 65.097 A 10.561 10.561 0 0 0 78.42 65.872 A 9.903 9.903 0 0 0 85.302 63.123 A 13.01 13.01 0 0 0 85.647 62.796 A 10.343 10.343 0 0 0 88.752 55.769 A 13.561 13.561 0 0 0 88.772 55.277 L 88.772 37.601 A 11.471 11.471 0 0 0 88.036 33.687 A 10.145 10.145 0 0 0 85.647 30.081 Q 82.522 27.005 77.834 27.005 Q 73.733 27.005 70.657 30.081 A 10.307 10.307 0 0 0 68.112 34.089 A 10.362 10.362 0 0 0 67.58 37.308 L 67.58 37.601 Z M 7.815 21.585 L 7.815 33.011 L 36.233 33.011 L 36.233 21.585 A 13.636 13.636 0 0 0 32.162 11.753 A 16.362 16.362 0 0 0 32.033 11.624 A 14.055 14.055 0 0 0 26.358 8.12 A 14.284 14.284 0 0 0 22.024 7.474 A 13.793 13.793 0 0 0 12.031 11.56 A 16.88 16.88 0 0 0 11.965 11.624 A 13.785 13.785 0 0 0 8.616 16.729 A 13.65 13.65 0 0 0 7.815 21.439 L 7.815 21.585 Z" vector-effect="non-scaling-stroke"/></g></svg>